<svg viewBox="0 0 400 400" xmlns="http://www.w3.org/2000/svg">
<defs>
<linearGradient id="robotGold" x1="0%" y1="0%" x2="100%" y2="100%">
<stop offset="0%" stop-color="#FFD700"/>
<stop offset="50%" stop-color="#FFA500"/>
<stop offset="100%" stop-color="#DAA520"/>
</linearGradient>
</defs>
<!-- Robot Head -->
<rect x="80" y="60" width="120" height="80" rx="15" fill="url(#robotGold)" stroke="#8B4513" stroke-width="3"/>
<rect x="90" y="70" width="100" height="60" rx="10" fill="#2F2F2F"/>
<!-- Eyes -->
<ellipse cx="110" cy="95" rx="8" ry="12" fill="#FFD700"/>
<ellipse cx="150" cy="95" rx="8" ry="12" fill="#FFD700"/>
<!-- Mouth -->
<path d="M 120 115 Q 130 125 140 115" stroke="#FFD700" stroke-width="2" fill="none"/>
<!-- Antenna -->
<rect x="127" y="40" width="6" height="25" fill="url(#robotGold)"/>
<circle cx="130" cy="35" r="8" fill="url(#robotGold)"/>
<!-- Ears -->
<ellipse cx="70" cy="100" rx="12" ry="20" fill="url(#robotGold)" stroke="#8B4513" stroke-width="2"/>
<ellipse cx="190" cy="100" rx="12" ry="20" fill="url(#robotGold)" stroke="#8B4513" stroke-width="2"/>
<!-- Body -->
<rect x="90" y="140" width="100" height="120" rx="10" fill="url(#robotGold)" stroke="#8B4513" stroke-width="3"/>
<rect x="100" y="150" width="80" height="100" rx="8" fill="#2F2F2F"/>
<!-- Circuit pattern -->
<g stroke="#FFD700" stroke-width="2" fill="none">
<circle cx="130" cy="180" r="8"/>
<line x1="130" y1="172" x2="130" y2="160"/>
<line x1="122" y1="180" x2="110" y2="180"/>
<line x1="138" y1="180" x2="150" y2="180"/>
<line x1="130" y1="188" x2="130" y2="200"/>
<line x1="125" y1="200" x2="135" y2="200"/>
<line x1="110" y1="190" x2="120" y2="190"/>
<line x1="140" y1="190" x2="150" y2="190"/>
</g>
<!-- Arms -->
<rect x="40" y="160" width="50" height="20" rx="10" fill="url(#robotGold)" stroke="#8B4513" stroke-width="2"/>
<rect x="170" y="160" width="50" height="20" rx="10" fill="url(#robotGold)" stroke="#8B4513" stroke-width="2"/>
<circle cx="35" cy="170" r="12" fill="url(#robotGold)" stroke="#8B4513" stroke-width="2"/>
<circle cx="225" cy="170" r="12" fill="url(#robotGold)" stroke="#8B4513" stroke-width="2"/>
<!-- Legs -->
<rect x="105" y="260" width="20" height="60" rx="10" fill="url(#robotGold)" stroke="#8B4513" stroke-width="2"/>
<rect x="135" y="260" width="20" height="60" rx="10" fill="url(#robotGold)" stroke="#8B4513" stroke-width="2"/>
<!-- Feet -->
<ellipse cx="115" cy="330" rx="18" ry="10" fill="url(#robotGold)" stroke="#8B4513" stroke-width="2"/>
<ellipse cx="145" cy="330" rx="18" ry="10" fill="url(#robotGold)" stroke="#8B4513" stroke-width="2"/>
</svg>